<svg width="726" height="160" viewBox="0 0 726 160" fill="none" xmlns="http://www.w3.org/2000/svg">
<circle cx="80" cy="80" r="80" fill="#6817C5"/>
<path d="M101.34 70.2611C97.6768 73.3204 94.2265 76.0436 90.1246 79.1509C85.3298 82.7659 80.1578 86.47 74.5193 90.2564C72.2282 91.7861 69.9166 93.1923 67.7215 94.6671C55.5871 102.816 37.2518 111.006 37.0117 111.109C37.0392 111.047 37.0666 110.979 37.1009 110.917C37.1078 110.903 37.1146 110.89 37.1215 110.876L77.1602 36.8212C78.4703 34.3929 81.9549 34.3929 83.2651 36.8212L101.347 70.2611H101.34ZM123.304 110.883L105.654 78.2318L104.804 76.6678C104.77 76.7021 104.735 76.7295 104.701 76.7638C83.0524 97.5892 72.0361 111.637 79.2797 116H120.251C122.879 116 124.552 113.194 123.304 110.883Z" fill="#FBF9FF"/>
<path d="M74.5213 90.2572C80.1598 86.4708 85.3318 82.7667 90.1266 79.1517C94.2354 76.0444 97.6925 73.3143 101.355 70.2482L101.006 69.6445C93.5975 75.0429 88.6106 77.382 79.7893 81.3194C66.4477 87.2734 58.6279 88.2817 48.2015 90.3807C48.2015 90.3807 38.2004 108.86 37 111.117C37 111.117 55.5068 102.872 67.7167 94.6679C69.9117 93.1931 72.2234 91.7869 74.5144 90.2572H74.5213Z" fill="#D9D9D9"/>
<path fill-rule="evenodd" clip-rule="evenodd" d="M214.073 117.537L214.067 117.533C206.186 112.163 202.203 104.161 202.033 93.8331L202 91.8003H223.337L223.431 93.7021C223.64 97.9554 225.43 101.022 228.847 103.14C232.423 105.357 237.374 106.56 243.873 106.56H245.793C252.515 106.56 256.915 105.632 259.377 104.102C261.938 102.51 262.873 100.793 262.873 98.9603C262.873 96.9499 262.04 95.3384 260.126 93.9988L260.113 93.9896L260.1 93.9802C258.177 92.5878 254.649 91.3644 249.198 90.4954L249.187 90.4936L236.104 88.3331C226.36 86.709 218.907 83.9477 214.027 79.8522L214.021 79.8465L214.014 79.8408C209.054 75.6021 206.713 69.414 206.713 61.6403C206.713 56.9115 208.078 52.4912 210.764 48.4191C213.506 44.2615 217.728 41.0057 223.257 38.5743C228.88 36.021 235.945 34.8003 244.353 34.8003C256.291 34.8003 265.958 37.3324 273.135 42.6268C280.334 47.8576 284.373 55.1074 285.224 64.2142L285.429 66.4003H264.084L263.851 64.6671C263.371 61.1053 261.636 58.4269 258.536 56.4984C255.356 54.5192 251.001 53.4403 245.313 53.4403H243.393C237.71 53.4403 233.633 54.3042 230.945 55.8168C228.272 57.3673 227.393 58.9715 227.393 60.5603C227.393 62.961 228.224 64.484 229.742 65.4962C231.555 66.7045 234.585 67.7644 239.045 68.5479L252.474 70.7062C262.504 72.3371 270.283 75.3925 275.559 80.0628C280.894 84.7857 283.553 90.9437 283.553 98.3603C283.553 106.985 280.096 113.779 273.202 118.491L273.197 118.494C266.486 123.054 256.983 125.2 244.953 125.2C232.161 125.2 221.803 122.719 214.079 117.541L214.073 117.537Z" fill="black"/>
<path fill-rule="evenodd" clip-rule="evenodd" d="M295.671 109.64L295.661 109.623C292.475 104.543 290.915 98.6444 290.915 92.0003C290.915 85.357 292.475 79.4915 295.669 74.4847L295.674 74.4773C298.922 69.4345 303.368 65.5532 308.963 62.8407C314.561 60.1265 320.989 58.8003 328.195 58.8003C335.402 58.8003 341.83 60.1265 347.428 62.8407C353.02 65.5522 357.43 69.4338 360.599 74.4808C363.874 79.4866 365.475 85.354 365.475 92.0003C365.475 98.6526 363.871 104.557 360.6 109.639C357.427 114.61 353.017 118.45 347.428 121.16C341.83 123.874 335.402 125.2 328.195 125.2C320.989 125.2 314.561 123.874 308.963 121.16C303.377 118.451 298.932 114.617 295.682 109.656L295.671 109.64ZM337.45 77.6831L337.42 77.6662C335.035 76.3335 332.259 75.6403 329.035 75.6403H327.355C324.133 75.6403 321.307 76.3332 318.829 77.678L318.82 77.683L318.811 77.6879C316.427 78.95 314.536 80.7651 313.119 83.1743C311.735 85.5266 310.995 88.4397 310.995 92.0003C310.995 95.4655 311.729 98.3885 313.126 100.837C314.541 103.24 316.433 105.096 318.821 106.438C321.298 107.705 324.129 108.36 327.355 108.36H329.035C332.272 108.36 335.06 107.701 337.45 106.438C339.926 105.092 341.853 103.233 343.265 100.837C344.661 98.3883 345.395 95.4653 345.395 92.0003C345.395 88.4397 344.655 85.5266 343.271 83.1743C341.863 80.7798 339.943 78.9653 337.481 77.6989L337.45 77.6831Z" fill="black"/>
<path fill-rule="evenodd" clip-rule="evenodd" d="M374.592 124V36.0003H394.551V124H374.592Z" fill="black"/>
<path fill-rule="evenodd" clip-rule="evenodd" d="M406.438 62.0003H426.398V124H406.438V62.0003Z" fill="black"/>
<path fill-rule="evenodd" clip-rule="evenodd" d="M451.247 121.257L451.235 121.251C446.186 118.598 442.158 114.781 439.173 109.833L439.169 109.827L439.165 109.821C436.151 104.74 434.685 98.7739 434.685 92.0003C434.685 84.8583 436.138 78.7528 439.176 73.8011C442.167 68.8483 446.207 65.1017 451.277 62.6083C456.369 60.0634 461.916 58.8003 467.885 58.8003C473.75 58.8003 478.748 59.7057 482.78 61.6321C484.918 62.6334 486.813 63.7753 488.445 65.0671V36.0003H508.405V124H488.445V119.244C486.652 120.635 484.563 121.808 482.201 122.772L482.185 122.778L482.168 122.785C477.98 124.409 473.289 125.2 468.125 125.2C461.992 125.2 456.354 123.895 451.247 121.257ZM486.206 101.059L486.21 101.051C487.669 98.6193 488.445 95.6308 488.445 92.0003C488.445 88.2789 487.665 85.3049 486.224 82.9713L486.212 82.9529L486.201 82.9343C484.798 80.5491 482.892 78.7846 480.451 77.5993L480.42 77.5841L480.389 77.5679C477.997 76.3012 475.206 75.6403 471.965 75.6403H470.285C465.62 75.6403 461.943 77.0804 459.082 79.8719L459.073 79.8807L459.064 79.8894C456.293 82.5253 454.765 86.4513 454.765 92.0003C454.765 97.5402 456.288 101.518 459.073 104.24C461.93 106.953 465.611 108.36 470.285 108.36H471.965C475.219 108.36 478.021 107.734 480.421 106.536C482.878 105.27 484.795 103.457 486.201 101.066L486.206 101.059Z" fill="black"/>
<path fill-rule="evenodd" clip-rule="evenodd" d="M416.07 55.7769C409.36 55.7769 404.73 51.1475 404.73 45.4369C404.73 39.7262 409.36 35.0969 416.07 35.0969H416.55C423.261 35.0969 427.89 39.7262 427.89 45.4369C427.89 51.1475 423.261 55.7769 416.55 55.7769H416.07Z" fill="black"/>
<path d="M544.6 121.8L520 37.8003H529.12L551.563 113.796L574.48 37.8003H586.12L608.441 114.379L630.88 37.8003H640L614.56 121.8H601.48L579.877 47.6133L557.68 121.8H544.6Z" fill="black"/>
<path fill-rule="evenodd" clip-rule="evenodd" d="M654.888 37.8003V121.8H663.648V87.3603H697.008C702.448 87.3603 707.288 86.4003 711.528 84.4803C715.848 82.5603 719.207 79.7603 721.608 76.0803C724.087 72.3203 725.327 67.8003 725.327 62.5203C725.327 57.3203 724.087 52.8803 721.608 49.2003C719.207 45.5203 715.848 42.7203 711.528 40.8003C707.288 38.8003 702.448 37.8003 697.008 37.8003H654.888ZM695.208 79.3203H663.648V45.8403H695.208C702.168 45.8403 707.448 47.2803 711.048 50.1603C714.648 52.9603 716.448 57.0803 716.448 62.5203C716.448 67.9603 714.648 72.1203 711.048 75.0003C707.448 77.8803 702.168 79.3203 695.208 79.3203Z" fill="black"/>
</svg>
